<svg width="24" height="24" viewBox="0 0 24 24" fill="none" xmlns="http://www.w3.org/2000/svg">
<g clip-path="url(#clip0_74061_1634)">
<path fill-rule="evenodd" clip-rule="evenodd" d="M23.0824 5.35294C23.1279 5.43892 23.1709 5.52019 23.2125 5.58937C23.4394 5.96437 23.6775 6.38437 23.6456 6.83249C23.64 6.90562 23.625 6.98437 23.6025 7.06312C23.5765 7.16027 23.5424 7.25956 23.5092 7.35643C23.4802 7.44089 23.4518 7.52351 23.43 7.60124C23.3979 7.72159 23.3661 7.84214 23.3343 7.96278C23.2025 8.46237 23.0703 8.96325 22.9162 9.45562C22.827 9.7401 22.7383 10.0249 22.6495 10.3099C22.3819 11.1686 22.1141 12.0281 21.8325 12.8812C21.6677 13.3797 21.1197 15.1001 20.5464 16.8997C19.8278 19.1551 19.0697 21.5349 18.9769 21.7894C18.7819 22.335 18.5062 22.8412 18.0394 23.0794C17.25 23.4825 16.0087 23.0512 15.2419 22.7494C14.3605 22.4022 13.4694 22.0721 12.5793 21.7424C12.3636 21.6625 12.1479 21.5826 11.9325 21.5025C10.1536 20.842 8.37809 20.169 6.6031 19.4963C5.70266 19.1551 4.80237 18.8139 3.90187 18.4744C3.65996 18.383 3.40585 18.2958 3.14729 18.207C2.32364 17.9243 1.45481 17.6261 0.791246 17.1281C0.0226388 16.5521 0.442124 15.485 0.752996 14.6942C0.784147 14.615 0.814207 14.5385 0.841872 14.4656C1.02035 13.9937 1.21151 13.5267 1.40269 13.0596C1.47661 12.879 1.55054 12.6984 1.62375 12.5175C1.92467 11.7722 2.22513 11.0265 2.52559 10.2807C2.82607 9.53489 3.12655 8.78908 3.4275 8.04374C3.54313 7.7577 3.65958 7.47167 3.77609 7.18548C4.12622 6.32546 4.47689 5.46411 4.8075 4.59749C4.89539 4.36702 4.98049 4.13287 5.0659 3.89784C5.37588 3.04492 5.69005 2.18044 6.1575 1.43812C6.65062 0.654366 7.335 0.680616 8.20125 0.849366C8.47605 0.90306 8.75066 0.956124 9.02508 1.00915C10.4564 1.28572 11.8824 1.56127 13.3031 1.91999C15 2.34937 16.6912 2.81062 18.3769 3.28312C19.1662 3.50437 19.9537 3.72749 20.7412 3.95249C20.7726 3.96146 20.8039 3.9704 20.8353 3.97934C21.4257 4.14785 22.009 4.3143 22.545 4.63124C22.7712 4.76499 22.9392 5.08231 23.0824 5.35294ZM17.4532 16.5508C17.8946 15.1636 18.3307 13.7931 18.4575 13.41C18.4595 13.4039 18.4616 13.3975 18.4637 13.3911C18.5452 13.1436 18.7094 12.645 18.375 12.5025C18.2575 12.4532 18.129 12.4176 18.002 12.3824C17.9405 12.3653 17.8793 12.3483 17.82 12.33C17.6447 12.2756 17.4695 12.2208 17.2942 12.166C17.1188 12.1111 16.9435 12.0563 16.7681 12.0019C16.2844 11.8509 15.8006 11.7005 15.3169 11.55C14.8331 11.3995 14.3494 11.2491 13.8656 11.0981C13.3154 10.9266 12.7653 10.7555 12.2151 10.5845C11.6647 10.4134 11.1142 10.2422 10.5637 10.0706C10.0734 9.9178 9.58312 9.76546 9.09281 9.61312C8.6025 9.46077 8.11218 9.30843 7.62187 9.15562C7.43906 9.09843 7.25625 9.04171 7.07343 8.98499C6.89062 8.92827 6.70781 8.87155 6.525 8.81437C6.46705 8.79648 6.40547 8.77423 6.34188 8.75126C6.09891 8.66348 5.82664 8.56512 5.61562 8.65874C5.53687 8.69437 5.46562 8.75812 5.4075 8.86312C5.29351 9.07105 5.20881 9.30493 5.12544 9.53513C5.08402 9.6495 5.04293 9.76295 4.99875 9.87187C4.77939 10.4174 4.55957 10.9625 4.33974 11.5077C4.11988 12.0529 3.90002 12.5981 3.68062 13.1437C3.62301 13.2866 3.56471 13.4294 3.5064 13.5722C3.37116 13.9033 3.23583 14.2347 3.10875 14.5687C3.0888 14.621 3.06717 14.6759 3.04476 14.7326C2.81657 15.3109 2.50782 16.0933 3.07125 16.515C3.55567 16.8794 4.19257 17.0978 4.79601 17.3048C4.98436 17.3694 5.16945 17.4329 5.34562 17.4994C6.05943 17.7681 6.77274 18.0385 7.4861 18.309C8.729 18.7802 9.97205 19.2515 11.2181 19.7137C11.2679 19.7321 11.3178 19.7505 11.3676 19.7689C12.1263 20.0487 12.8875 20.3294 13.6387 20.625C14.1994 20.8462 15.1069 21.1612 15.6844 20.8669C16.0256 20.6925 16.2281 20.3231 16.3725 19.9237C16.4365 19.7457 16.9483 18.1373 17.4532 16.5508ZM19.0988 4.35936C19.1888 4.39686 19.2732 4.44374 19.335 4.50561C19.5113 4.67999 19.4644 4.94061 19.3744 5.18811C19.3391 5.28548 19.2977 5.3804 19.2599 5.46695C19.2315 5.53208 19.2052 5.59248 19.185 5.64561C19.1208 5.81895 19.0656 5.99587 19.0104 6.17287C18.9526 6.35774 18.8949 6.5427 18.8269 6.72374C18.7049 7.04855 18.5782 7.37169 18.4515 7.69488C18.249 8.21122 18.0465 8.72768 17.8631 9.25124C17.8465 9.29906 17.8293 9.35591 17.8107 9.41761C17.733 9.67524 17.6297 10.0175 17.43 10.14C17.2688 10.2412 17.0663 10.2037 16.8788 10.1512C16.8788 10.1512 14.46 9.55311 13.0144 9.09749C12.9778 9.08702 12.9395 9.07493 12.9057 9.06424L12.8982 9.06186C12.5712 8.95667 12.193 8.83549 11.8043 8.71097C11.3617 8.56916 10.9056 8.42302 10.4963 8.29124L10.4494 8.27811C10.1103 8.1754 9.77441 8.0653 9.4377 7.95494C9.32569 7.91823 9.2136 7.88149 9.10128 7.84499C9.07933 7.83736 9.05836 7.83069 9.03812 7.82426C9.01857 7.81805 8.9997 7.81206 8.98128 7.80561C8.73753 7.72311 8.5894 7.64436 8.6719 7.32936C8.74103 7.06552 8.84131 6.80733 8.94142 6.54959C9.00423 6.3879 9.06697 6.22637 9.1219 6.06374C9.42565 5.15999 9.73878 4.27311 10.0988 3.38811C10.1304 3.31088 10.1598 3.22433 10.1904 3.13437C10.2942 2.82905 10.4114 2.48456 10.6707 2.33249C10.9018 2.19676 11.4641 2.3007 11.8524 2.37249C11.9522 2.39095 12.0405 2.40728 12.1088 2.41686C12.675 2.49749 13.2338 2.63999 13.7813 2.81061C14.4576 3.02146 15.1424 3.19336 15.8267 3.36513C16.9314 3.64243 18.0347 3.91939 19.0988 4.35936ZM18.1745 5.79601C18.2458 5.59752 18.3175 5.39811 18.3694 5.19374C18.3706 5.18917 18.3718 5.18452 18.3731 5.1798C18.3913 5.11101 18.4134 5.0278 18.3994 4.95936C18.3957 4.94249 18.3919 4.92561 18.3844 4.91061L18.3394 4.85811C18.3183 4.84195 18.2914 4.83568 18.2647 4.82947C18.2512 4.82631 18.2377 4.82316 18.225 4.81874C18.1594 4.79811 18.0957 4.77936 18.0282 4.76061L17.6438 4.65374C17.3869 4.58436 17.1282 4.51499 16.8675 4.45874C16.7448 4.43191 16.6237 4.39714 16.5021 4.36224C16.4028 4.3337 16.3031 4.30507 16.2019 4.28061C16.0557 4.24499 15.8082 4.18499 15.6769 4.30499C15.6696 4.31084 15.6657 4.31784 15.6617 4.32508C15.6605 4.32712 15.6594 4.32918 15.6582 4.33124C15.6362 4.36105 15.6208 4.39612 15.6065 4.42874C15.6037 4.4351 15.6009 4.44137 15.5982 4.44749C15.5682 4.51499 15.5382 4.58436 15.5119 4.65374C15.0807 5.79186 14.67 6.94124 14.28 8.09436C14.2707 8.12347 14.2581 8.15402 14.2452 8.18541C14.2141 8.26119 14.181 8.34184 14.1863 8.41874C14.2038 8.68127 14.419 8.74449 14.6305 8.80664C14.6456 8.81107 14.6607 8.8155 14.6756 8.81999L14.6906 8.82374C14.8709 8.88239 15.0806 8.94977 15.2657 9.00923C15.3232 9.02771 15.3783 9.04542 15.4294 9.06186C15.6957 9.14624 15.9656 9.21749 16.2357 9.28874C16.2587 9.29476 16.2822 9.30132 16.3061 9.30797C16.4158 9.33859 16.5323 9.37111 16.6463 9.36186C16.8234 9.34638 16.8823 9.24097 16.9573 9.10642C16.9641 9.09429 16.971 9.08192 16.9782 9.06936C17.0074 9.01674 17.0257 8.95829 17.0439 8.89992C17.055 8.86469 17.066 8.82949 17.0794 8.79561C17.3754 8.03306 17.6507 7.26199 17.9258 6.49122C17.9924 6.30492 18.0589 6.11863 18.1257 5.93249C18.1417 5.88701 18.1581 5.84153 18.1745 5.79601Z" fill="black"/>
</g>
<defs>
<clipPath id="clip0_74061_1634">
<rect width="24" height="24" fill="white"/>
</clipPath>
</defs>
</svg>
