<svg width="136" height="28" viewBox="0 0 136 28" fill="none" xmlns="http://www.w3.org/2000/svg">
<path d="M13.8545 5.27383C13.8545 6.04561 13.8224 7.38551 13.7581 9.29352C13.7152 11.2015 13.6723 13.5597 13.6294 16.3682C13.608 19.1552 13.6294 22.2744 13.6937 25.726C13.7152 26.3048 13.5437 26.7336 13.1792 27.0123C12.8362 27.3124 12.4074 27.4625 11.8929 27.4625C10.6924 27.4625 9.48111 27.4411 8.25912 27.3982C7.03713 27.3553 5.81515 27.291 4.59316 27.2053C3.97145 27.1624 3.30686 26.9266 2.5994 26.4978C1.89193 26.069 1.38813 25.5652 1.088 24.9864C0.487722 23.7858 0.13399 22.4995 0.0267979 21.1275C-0.0803938 19.7554 0.13399 18.4263 0.669948 17.14C1.09871 16.1323 1.72043 15.3391 2.53508 14.7603C3.34974 14.1815 4.27159 13.7634 5.30063 13.5062C5.85803 13.3561 6.42614 13.2489 7.00498 13.1846C7.58381 13.0988 8.15193 13.0667 8.70932 13.0881C9.3096 13.0881 9.79196 13.0345 10.1564 12.9273C10.5423 12.7987 10.7352 12.5093 10.7352 12.0591V3.47301C10.7352 3.17287 10.7352 2.87274 10.7352 2.5726C10.7352 2.25103 10.746 1.95089 10.7674 1.67219C10.8746 0.557397 11.4106 0 12.3753 0C12.8255 0 13.2114 0.150068 13.533 0.450205C13.8545 0.750342 14.026 1.14695 14.0475 1.64003C14.0689 2.02592 14.0689 2.50829 14.0475 3.08712C14.026 3.66596 13.9939 4.18048 13.951 4.63068C13.9081 5.05945 13.876 5.27383 13.8545 5.27383ZM10.6388 20.1949C10.6388 20.1949 10.6281 20.0663 10.6066 19.809C10.6066 19.5303 10.5959 19.2195 10.5745 18.8765C10.5745 18.512 10.5423 18.2119 10.478 17.976C10.4351 17.7402 10.3386 17.5044 10.1886 17.2686C10.0385 17.0113 9.85628 16.8398 9.64189 16.7541C8.69861 16.3896 7.78748 16.3575 6.9085 16.6576C6.02953 16.9577 5.31135 17.4722 4.75395 18.2011C4.21799 18.9301 3.96073 19.7983 3.98217 20.8059C3.98217 21.0846 3.99289 21.374 4.01433 21.6742C4.03577 21.9743 4.10008 22.2423 4.20727 22.4781C4.37878 22.7997 4.58244 23.1427 4.81827 23.5071C5.05409 23.8502 5.32207 24.0753 5.6222 24.1824C6.1796 24.3325 6.76916 24.4183 7.39087 24.4397C8.01258 24.4611 8.62357 24.4611 9.22384 24.4397C9.43823 24.4183 9.66333 24.2896 9.89915 24.0538C10.135 23.818 10.2743 23.5929 10.3172 23.3785C10.4244 22.864 10.4887 22.3387 10.5101 21.8028C10.553 21.2668 10.5959 20.7309 10.6388 20.1949Z" fill="black"/>
<path d="M17.5205 3.37654C17.5419 2.6262 17.7563 2.00448 18.1636 1.5114C18.5924 0.996883 19.1069 0.750342 19.7072 0.77178C20.0716 0.77178 20.4254 0.88969 20.7684 1.12551C21.1328 1.36133 21.433 1.66147 21.6688 2.02592C21.9046 2.36894 22.0225 2.73339 22.0225 3.11928C22.044 3.54804 21.9261 3.96609 21.6688 4.37342C21.4115 4.78075 21.09 5.11304 20.7041 5.3703C20.3182 5.62756 19.9109 5.76691 19.4821 5.78835C18.9033 5.78835 18.4316 5.57397 18.0672 5.1452C17.7027 4.695 17.5205 4.10544 17.5205 3.37654ZM17.8099 12.8952C17.9171 12.1448 18.1422 11.6303 18.4852 11.3516C18.8282 11.0729 19.2463 10.9657 19.7393 11.03C20.3396 11.1158 20.7898 11.373 21.09 11.8018C21.3901 12.2306 21.5402 12.7987 21.5402 13.5062C21.5187 14.7925 21.5187 16.0895 21.5402 17.3972C21.583 18.6835 21.5938 19.9698 21.5723 21.2561C21.5509 22.0065 21.5187 22.7461 21.4759 23.475C21.433 24.2039 21.3901 24.9435 21.3472 25.6938C21.3258 26.2298 21.1221 26.6907 20.7362 27.0766C20.3503 27.4839 19.9109 27.7091 19.4178 27.7519C18.8175 27.7948 18.3995 27.6447 18.1636 27.3017C17.9278 26.9587 17.7563 26.5514 17.6491 26.0797C17.5634 25.6939 17.499 25.2972 17.4562 24.8899C17.4347 24.4826 17.424 24.0753 17.424 23.6679C17.4026 23.0033 17.3919 22.3495 17.3919 21.7063C17.3919 21.0417 17.3919 20.3771 17.3919 19.7126C17.3919 19.7126 17.3919 19.4767 17.3919 19.0051C17.4133 18.512 17.4347 17.901 17.4562 17.1721C17.499 16.4218 17.5526 15.6607 17.617 14.8889C17.6813 14.1171 17.7456 13.4526 17.8099 12.8952Z" fill="black"/>
<path d="M24.8913 25.5331C24.5912 25.1472 24.3447 24.7077 24.1517 24.2146C23.9588 23.743 23.7658 23.2713 23.5729 22.7997C23.5086 22.6282 23.4871 22.3923 23.5086 22.0922C23.53 21.7921 23.5729 21.5455 23.6372 21.3526C23.7444 21.0524 23.948 20.8488 24.2482 20.7416C24.5698 20.6344 24.8806 20.613 25.1808 20.6773C25.7596 20.763 26.0812 21.1382 26.1455 21.8028C26.2098 22.5317 26.4671 23.1748 26.9173 23.7322C27.3675 24.2896 27.957 24.6648 28.6859 24.8578C29.1147 24.9435 29.5006 25.0185 29.8436 25.0829C30.208 25.1472 30.6261 25.19 31.0977 25.2115C31.6337 25.2115 32.1375 25.04 32.6091 24.697C33.1022 24.354 33.3916 24.0002 33.4774 23.6358C33.5846 23.1641 33.5524 22.7782 33.3809 22.4781C33.2308 22.178 32.9414 21.7706 32.5127 21.2561C32.4269 21.1704 32.1697 20.9667 31.7409 20.6451C31.3121 20.3235 30.8083 19.9484 30.2295 19.5196C29.6721 19.0908 29.1254 18.6621 28.5894 18.2333C28.0535 17.8045 27.6354 17.4294 27.3353 17.1078C26.6064 16.3146 26.1776 15.4463 26.049 14.503C25.9418 13.5597 26.0276 12.595 26.3063 11.6089C26.4135 11.2658 26.585 10.9336 26.8208 10.612C27.0566 10.2904 27.3139 10.0331 27.5926 9.8402C28.5359 9.21849 29.5113 8.8326 30.5189 8.68253C31.5265 8.51102 32.5555 8.60749 33.606 8.97194C34.485 9.27208 35.1603 9.80804 35.6319 10.5798C36.125 11.3516 36.318 12.2091 36.2108 13.1524C36.1893 13.4954 36.0821 13.7849 35.8892 14.0207C35.7177 14.2351 35.439 14.3637 35.0531 14.4066C34.7101 14.428 34.4314 14.353 34.217 14.1815C34.0241 13.9885 33.8847 13.7313 33.799 13.4097C33.7775 13.3239 33.7561 13.2489 33.7346 13.1846C33.7132 13.1203 33.6918 13.0452 33.6703 12.9595C33.5631 12.5093 33.3809 12.1127 33.1237 11.7696C32.8878 11.4266 32.5448 11.2015 32.0946 11.0943C31.5587 10.9443 31.0549 10.9657 30.5832 11.1587C30.133 11.3516 29.7471 11.641 29.4255 12.0269C29.254 12.2413 29.1147 12.5093 29.0075 12.8308C28.9217 13.1524 28.911 13.4311 28.9753 13.6669C29.104 14.0743 29.2755 14.4923 29.4899 14.9211C29.7042 15.3284 29.9615 15.6821 30.2616 15.9823C31.2264 16.9041 32.2983 17.6973 33.4774 18.3619C34.5064 18.9408 35.2568 19.6697 35.7284 20.5486C36.2001 21.4062 36.468 22.3709 36.5324 23.4428C36.5752 23.9573 36.4573 24.4719 36.1786 24.9864C35.8999 25.5009 35.514 25.9725 35.0209 26.4013C34.5493 26.8515 34.0133 27.216 33.4131 27.4947C32.8342 27.7734 32.2554 27.9234 31.6766 27.9449C30.8833 27.9663 30.058 27.9127 29.2004 27.7841C28.3643 27.6769 27.5604 27.4411 26.7886 27.0766C26.0383 26.7336 25.4059 26.2191 24.8913 25.5331Z" fill="black"/>
<path d="M43.1317 13.7313C43.1102 13.9242 43.1853 14.0743 43.3568 14.1815C43.5283 14.2672 43.6891 14.2565 43.8391 14.1493C44.0321 14.0207 44.1714 13.9349 44.2572 13.892C44.3644 13.8492 44.4823 13.7741 44.6109 13.6669C44.761 13.5383 44.9861 13.3132 45.2862 12.9916C45.9508 12.2413 46.5511 11.5338 47.087 10.8692C47.6444 10.1832 48.2554 9.47574 48.92 8.74684C49.2202 8.38239 49.6596 8.14657 50.2385 8.03938C50.8173 7.93219 51.2782 7.97506 51.6213 8.16801C51.8356 8.2752 52.0393 8.43599 52.2322 8.65037C52.4466 8.86475 52.5538 9.13273 52.5538 9.45431C52.5753 9.75444 52.393 10.1296 52.0071 10.5798C51.6427 10.9871 51.1925 11.4374 50.6565 11.9304C50.142 12.4235 49.7454 12.8201 49.4667 13.1203C49.188 13.4633 48.9415 13.8706 48.7271 14.3422C48.5127 14.7925 48.4591 15.2963 48.5663 15.8537C48.845 17.0971 49.113 18.3405 49.3702 19.5839C49.6275 20.8059 49.874 22.0493 50.1099 23.3142C50.217 23.7858 50.3028 24.2682 50.3671 24.7613C50.4529 25.2758 50.5172 25.7796 50.5601 26.2727C50.6029 26.6157 50.5279 26.9266 50.335 27.2053C50.142 27.4839 49.874 27.6769 49.531 27.7841C49.2738 27.8698 48.9951 27.8806 48.6949 27.8162C48.3948 27.7734 48.1268 27.5483 47.891 27.1409C47.6337 26.7122 47.4408 26.262 47.3122 25.7903C47.205 25.3187 47.0978 24.847 46.9906 24.3754C46.7762 23.3035 46.5832 22.2316 46.4117 21.1596C46.2402 20.0663 46.058 18.9729 45.8651 17.8796C45.8222 17.6438 45.7793 17.3865 45.7364 17.1078C45.6936 16.8077 45.4577 16.6683 45.029 16.6897C44.7074 16.7112 44.3751 16.8827 44.0321 17.2043C43.6891 17.5258 43.5068 17.8474 43.4854 18.169C43.464 18.512 43.4533 18.8765 43.4533 19.2623C43.4747 19.6482 43.4747 20.0234 43.4533 20.3879C43.3675 21.374 43.271 22.3602 43.1638 23.3464C43.0781 24.3111 42.9816 25.2758 42.8744 26.2405C42.7887 26.8622 42.6172 27.2803 42.3599 27.4947C42.1241 27.7305 41.7811 27.827 41.3309 27.7841C40.3447 27.6769 39.8516 27.0766 39.8516 25.9833C39.873 24.5255 39.8945 23.0677 39.9159 21.6098C39.9588 20.152 39.991 18.6942 40.0124 17.2364C40.0338 16.1216 40.0446 15.0176 40.0446 13.9242C40.0446 12.8308 40.0553 11.7268 40.0767 10.612C40.0767 10.3762 40.0767 9.97955 40.0767 9.42215C40.0982 8.86475 40.1196 8.23232 40.141 7.52486C40.1839 6.79595 40.2161 6.07777 40.2375 5.3703C40.2589 4.66284 40.2804 4.03041 40.3018 3.47301C40.3233 2.89417 40.334 2.48685 40.334 2.25103C40.3768 1.8437 40.484 1.48996 40.6555 1.18983C40.8485 0.889691 41.1379 0.664588 41.5238 0.514519C42.0812 0.300136 42.5528 0.300136 42.9387 0.514519C43.3461 0.728902 43.539 1.13623 43.5176 1.7365C43.5176 2.16527 43.5068 2.75483 43.4854 3.50517C43.4854 4.25551 43.464 5.0916 43.4211 6.01345C43.3997 6.91386 43.3675 7.82499 43.3246 8.74684C43.3032 9.64725 43.2817 10.4726 43.2603 11.223C43.2389 11.9733 43.2174 12.5629 43.196 12.9916C43.196 13.0774 43.1853 13.1953 43.1638 13.3454C43.1424 13.474 43.1317 13.6026 43.1317 13.7313Z" fill="black"/>
<path d="M58.5479 17.7188C58.2692 17.6759 58.0334 17.7188 57.8405 17.8474C57.6475 17.976 57.5403 18.1797 57.5189 18.4584C57.4975 19.123 57.4867 19.6804 57.4867 20.1306C57.5082 20.5808 57.5725 21.0203 57.6797 21.4491C57.8083 21.8778 58.0013 22.3923 58.2585 22.9926C58.3443 23.1427 58.5479 23.3678 58.8695 23.6679C59.2125 23.9681 59.4591 24.161 59.6091 24.2468C60.1022 24.5255 60.6703 24.7184 61.3135 24.8256C61.9566 24.9328 62.6427 24.8899 63.3716 24.697C64.1005 24.504 64.8294 24.0967 65.5583 23.475C65.7298 23.1963 65.9442 22.9712 66.2014 22.7997C66.4801 22.6067 66.791 22.6282 67.134 22.864C67.4341 23.0355 67.6056 23.3464 67.6485 23.7966C67.6914 24.2253 67.6056 24.6112 67.3913 24.9542C66.7267 26.1333 65.7298 26.8515 64.4006 27.1088C63.7146 27.2374 63.1465 27.3124 62.6963 27.3339C62.2675 27.3768 61.828 27.366 61.3778 27.3017C60.9276 27.2588 60.3273 27.1838 59.577 27.0766C58.4836 26.9051 57.6046 26.4549 56.9401 25.726C56.2755 25.0185 55.7717 24.1717 55.4287 23.1856C55.2786 22.7997 55.15 22.4031 55.0428 21.9957C54.957 21.567 54.8927 21.1489 54.8498 20.7416C54.8284 20.3128 54.7855 19.9055 54.7212 19.5196C54.6569 19.1123 54.4747 18.7264 54.1745 18.3619C53.9387 18.0189 53.8744 17.5902 53.9816 17.0756C54.0888 16.5397 54.2817 16.1216 54.5604 15.8215C54.6676 15.7143 54.7855 15.5964 54.9141 15.4678C55.0428 15.3391 55.1285 15.1998 55.1714 15.0497C55.7288 13.5062 56.5756 12.4128 57.7118 11.7696C58.8695 11.1051 60.1987 10.6977 61.6994 10.5477C62.5569 10.4405 63.3716 10.4726 64.1433 10.6441C64.9366 10.8156 65.6869 11.1694 66.3944 11.7053C67.0375 12.177 67.4877 12.7558 67.745 13.4418C68.0237 14.1064 68.0666 14.8353 67.8736 15.6285C67.7879 16.0359 67.6485 16.4754 67.4556 16.947C67.2626 17.4186 66.9518 17.6759 66.523 17.7188C66.0728 17.7617 65.4511 17.7938 64.6579 17.8153C63.8646 17.8153 63.0393 17.8153 62.1817 17.8153C61.3456 17.7938 60.5846 17.7831 59.8986 17.7831C59.234 17.7617 58.7838 17.7402 58.5479 17.7188ZM58.3228 15.918C57.5296 15.8537 57.2938 15.4892 57.6154 14.8246C57.744 14.5459 57.8833 14.2672 58.0334 13.9885C58.2049 13.7098 58.3979 13.5062 58.6122 13.3775C59.4269 12.9488 60.2523 12.6486 61.0884 12.4771C61.9459 12.2842 62.8356 12.2842 63.7574 12.4771C64.272 12.6057 64.7115 12.8201 65.0759 13.1203C65.4618 13.399 65.7298 13.7849 65.8798 14.2779C66.2443 15.3927 65.8477 15.9823 64.69 16.0466C64.4542 16.068 64.2077 16.0788 63.9504 16.0788C63.7146 16.0573 63.468 16.0466 63.2108 16.0466H61.7958C61.7958 16.0466 61.5815 16.0359 61.1527 16.0144C60.7454 15.993 60.263 15.9716 59.7056 15.9501C59.1696 15.9287 58.7087 15.918 58.3228 15.918ZM61.7958 15.3391C61.7958 15.3391 61.9245 15.3391 62.1817 15.3391C62.4604 15.3177 62.7713 15.307 63.1143 15.307C63.4788 15.307 63.7896 15.307 64.0469 15.307C64.3041 15.307 64.5614 15.2855 64.8186 15.2427C65.0973 15.1998 65.2474 15.0283 65.2689 14.7281C65.2689 14.5352 65.1724 14.3208 64.9794 14.085C64.8079 13.8492 64.6364 13.6884 64.4649 13.6026C62.8142 12.7451 61.1313 12.7665 59.4162 13.6669C59.2661 13.7527 59.1375 13.8706 59.0303 14.0207C58.9231 14.1707 58.8159 14.3208 58.7087 14.4709C58.5587 14.7281 58.5158 14.9425 58.5801 15.114C58.6658 15.2641 58.8695 15.3391 59.1911 15.3391H61.7958Z" fill="black"/>
<path d="M84.2569 22.864C84.3855 23.7644 84.2247 24.5791 83.7745 25.308C83.3457 26.0369 82.7562 26.6264 82.0058 27.0766C81.2555 27.5483 80.4623 27.8377 79.6262 27.9449C78.8115 28.0735 78.0826 27.977 77.4395 27.6555C76.9678 27.4196 76.5283 27.1409 76.121 26.8194C75.7351 26.4978 75.5207 26.1012 75.4779 25.6295C75.3921 24.4719 75.3063 23.2499 75.2206 21.9636C75.1563 20.6558 75.1348 19.4124 75.1563 18.2333C75.1777 17.5473 75.1992 17.0542 75.2206 16.7541C75.2635 16.4539 75.1777 16.261 74.9633 16.1752C74.7704 16.0895 74.3309 16.0466 73.6449 16.0466C73.1947 16.0466 72.7445 16.0466 72.2943 16.0466C71.8441 16.0466 71.4046 16.0359 70.9758 16.0144C70.5899 15.9716 70.2469 15.8751 69.9468 15.725C69.6681 15.5535 69.5073 15.2534 69.4644 14.8246C69.4215 14.3958 69.4858 14.0314 69.6573 13.7313C69.8289 13.4097 70.0861 13.206 70.4291 13.1203C70.8793 13.0131 71.3617 12.9916 71.8762 13.0559C72.3907 13.0988 72.8731 13.1095 73.3233 13.0881C74.1165 13.0452 74.6739 12.9916 74.9955 12.9273C75.3171 12.863 75.51 12.6701 75.5743 12.3485C75.6601 12.0269 75.7137 11.4802 75.7351 10.7084C75.7566 9.89379 75.8745 9.07914 76.0889 8.26448C76.196 7.83571 76.4104 7.53558 76.732 7.36407C77.0536 7.19256 77.4287 7.12825 77.8575 7.17112C78.3292 7.23544 78.6507 7.40695 78.8222 7.68565C78.9937 7.9429 79.0688 8.28592 79.0473 8.71468V11.3194C79.0473 11.9626 79.1438 12.3914 79.3368 12.6057C79.5297 12.7987 79.9585 12.8952 80.6231 12.8952H83.4529C83.8817 12.8952 84.2354 12.9916 84.5141 13.1846C84.7928 13.3561 84.9429 13.6669 84.9643 14.1171C85.0072 14.6102 84.9 15.0283 84.6427 15.3713C84.4069 15.7143 84.0532 15.9072 83.5815 15.9501C83.0027 15.9716 82.4239 15.9823 81.845 15.9823C81.2876 15.9608 80.7303 15.9287 80.1729 15.8858C79.7226 15.8429 79.3904 15.8965 79.176 16.0466C78.9616 16.1752 78.8437 16.4861 78.8222 16.9792C78.7794 17.9868 78.6829 19.0051 78.5328 20.0341C78.3828 21.0417 78.4471 22.0493 78.7258 23.0569C78.8115 23.3356 78.908 23.6036 79.0152 23.8609C79.1438 24.0967 79.4011 24.2146 79.787 24.2146C80.1514 24.2146 80.4194 24.1074 80.5909 23.893C80.7838 23.6786 80.9232 23.4214 81.0089 23.1212C81.0518 22.9497 81.0947 22.7782 81.1376 22.6067C81.2019 22.4352 81.2769 22.2744 81.3627 22.1244C81.7914 21.4169 82.3703 21.1811 83.0992 21.4169C83.7852 21.6313 84.1711 22.1136 84.2569 22.864Z" fill="black"/>
<path d="M101.623 22.864C101.752 23.7644 101.591 24.5791 101.141 25.308C100.712 26.0369 100.122 26.6264 99.3721 27.0766C98.6218 27.5483 97.8286 27.8377 96.9925 27.9449C96.1778 28.0735 95.4489 27.977 94.8058 27.6555C94.3341 27.4196 93.8946 27.1409 93.4873 26.8194C93.1014 26.4978 92.887 26.1012 92.8442 25.6295C92.7584 24.4719 92.6727 23.2499 92.5869 21.9636C92.5226 20.6558 92.5012 19.4124 92.5226 18.2333C92.544 17.5473 92.5655 17.0542 92.5869 16.7541C92.6298 16.4539 92.544 16.261 92.3296 16.1752C92.1367 16.0895 91.6972 16.0466 91.0112 16.0466C90.561 16.0466 90.1108 16.0466 89.6606 16.0466C89.2104 16.0466 88.7709 16.0359 88.3421 16.0144C87.9562 15.9716 87.6132 15.8751 87.3131 15.725C87.0344 15.5535 86.8736 15.2534 86.8307 14.8246C86.7878 14.3958 86.8522 14.0314 87.0237 13.7313C87.1952 13.4097 87.4524 13.206 87.7954 13.1203C88.2456 13.0131 88.728 12.9916 89.2425 13.0559C89.757 13.0988 90.2394 13.1095 90.6896 13.0881C91.4828 13.0452 92.0402 12.9916 92.3618 12.9273C92.6834 12.863 92.8763 12.6701 92.9406 12.3485C93.0264 12.0269 93.08 11.4802 93.1014 10.7084C93.1229 9.89379 93.2408 9.07914 93.4552 8.26448C93.5624 7.83571 93.7767 7.53558 94.0983 7.36407C94.4199 7.19256 94.7951 7.12825 95.2238 7.17112C95.6955 7.23544 96.017 7.40695 96.1885 7.68565C96.3601 7.9429 96.4351 8.28592 96.4137 8.71468V11.3194C96.4137 11.9626 96.5101 12.3914 96.7031 12.6057C96.896 12.7987 97.3248 12.8952 97.9894 12.8952H100.819C101.248 12.8952 101.602 12.9916 101.88 13.1846C102.159 13.3561 102.309 13.6669 102.331 14.1171C102.374 14.6102 102.266 15.0283 102.009 15.3713C101.773 15.7143 101.42 15.9072 100.948 15.9501C100.369 15.9716 99.7902 15.9823 99.2114 15.9823C98.654 15.9608 98.0966 15.9287 97.5392 15.8858C97.089 15.8429 96.7567 15.8965 96.5423 16.0466C96.3279 16.1752 96.21 16.4861 96.1885 16.9792C96.1457 17.9868 96.0492 19.0051 95.8991 20.0341C95.7491 21.0417 95.8134 22.0493 96.0921 23.0569C96.1778 23.3356 96.2743 23.6036 96.3815 23.8609C96.5101 24.0967 96.7674 24.2146 97.1533 24.2146C97.5177 24.2146 97.7857 24.1074 97.9572 23.893C98.1502 23.6786 98.2895 23.4214 98.3753 23.1212C98.4181 22.9497 98.461 22.7782 98.5039 22.6067C98.5682 22.4352 98.6432 22.2744 98.729 22.1244C99.1578 21.4169 99.7366 21.1811 100.465 21.4169C101.152 21.6313 101.537 22.1136 101.623 22.864Z" fill="black"/>
<path d="M118.989 22.864C119.118 23.7644 118.957 24.5791 118.507 25.308C118.078 26.0369 117.489 26.6264 116.738 27.0766C115.988 27.5483 115.195 27.8377 114.359 27.9449C113.544 28.0735 112.815 27.977 112.172 27.6555C111.7 27.4196 111.261 27.1409 110.854 26.8194C110.468 26.4978 110.253 26.1012 110.21 25.6295C110.125 24.4719 110.039 23.2499 109.953 21.9636C109.889 20.6558 109.867 19.4124 109.889 18.2333C109.91 17.5473 109.932 17.0542 109.953 16.7541C109.996 16.4539 109.91 16.261 109.696 16.1752C109.503 16.0895 109.064 16.0466 108.377 16.0466C107.927 16.0466 107.477 16.0466 107.027 16.0466C106.577 16.0466 106.137 16.0359 105.708 16.0144C105.323 15.9716 104.98 15.8751 104.679 15.725C104.401 15.5535 104.24 15.2534 104.197 14.8246C104.154 14.3958 104.218 14.0314 104.39 13.7313C104.561 13.4097 104.819 13.206 105.162 13.1203C105.612 13.0131 106.094 12.9916 106.609 13.0559C107.123 13.0988 107.606 13.1095 108.056 13.0881C108.849 13.0452 109.407 12.9916 109.728 12.9273C110.05 12.863 110.243 12.6701 110.307 12.3485C110.393 12.0269 110.446 11.4802 110.468 10.7084C110.489 9.89379 110.607 9.07914 110.821 8.26448C110.929 7.83571 111.143 7.53558 111.465 7.36407C111.786 7.19256 112.161 7.12825 112.59 7.17112C113.062 7.23544 113.383 7.40695 113.555 7.68565C113.726 7.9429 113.801 8.28592 113.78 8.71468V11.3194C113.78 11.9626 113.876 12.3914 114.069 12.6057C114.262 12.7987 114.691 12.8952 115.356 12.8952H118.186C118.614 12.8952 118.968 12.9916 119.247 13.1846C119.525 13.3561 119.676 13.6669 119.697 14.1171C119.74 14.6102 119.633 15.0283 119.375 15.3713C119.14 15.7143 118.786 15.9072 118.314 15.9501C117.735 15.9716 117.156 15.9823 116.578 15.9823C116.02 15.9608 115.463 15.9287 114.905 15.8858C114.455 15.8429 114.123 15.8965 113.909 16.0466C113.694 16.1752 113.576 16.4861 113.555 16.9792C113.512 17.9868 113.416 19.0051 113.265 20.0341C113.115 21.0417 113.18 22.0493 113.458 23.0569C113.544 23.3356 113.641 23.6036 113.748 23.8609C113.876 24.0967 114.134 24.2146 114.52 24.2146C114.884 24.2146 115.152 24.1074 115.324 23.893C115.516 23.6786 115.656 23.4214 115.742 23.1212C115.784 22.9497 115.827 22.7782 115.87 22.6067C115.935 22.4352 116.01 22.2744 116.095 22.1244C116.524 21.4169 117.103 21.1811 117.832 21.4169C118.518 21.6313 118.904 22.1136 118.989 22.864Z" fill="black"/>
<path d="M126.098 17.7188C125.819 17.6759 125.583 17.7188 125.39 17.8474C125.197 17.976 125.09 18.1797 125.069 18.4584C125.047 19.123 125.036 19.6804 125.036 20.1306C125.058 20.5808 125.122 21.0203 125.229 21.4491C125.358 21.8778 125.551 22.3923 125.808 22.9926C125.894 23.1427 126.098 23.3678 126.419 23.6679C126.762 23.9681 127.009 24.161 127.159 24.2468C127.652 24.5255 128.22 24.7184 128.863 24.8256C129.506 24.9328 130.192 24.8899 130.921 24.697C131.65 24.504 132.379 24.0967 133.108 23.475C133.279 23.1963 133.494 22.9712 133.751 22.7997C134.03 22.6067 134.341 22.6282 134.684 22.864C134.984 23.0355 135.155 23.3464 135.198 23.7966C135.241 24.2253 135.155 24.6112 134.941 24.9542C134.276 26.1333 133.279 26.8515 131.95 27.1088C131.264 27.2374 130.696 27.3124 130.246 27.3339C129.817 27.3768 129.378 27.366 128.927 27.3017C128.477 27.2588 127.877 27.1838 127.127 27.0766C126.033 26.9051 125.154 26.4549 124.49 25.726C123.825 25.0185 123.321 24.1717 122.978 23.1856C122.828 22.7997 122.7 22.4031 122.592 21.9957C122.507 21.567 122.442 21.1489 122.399 20.7416C122.378 20.3128 122.335 19.9055 122.271 19.5196C122.206 19.1123 122.024 18.7264 121.724 18.3619C121.488 18.0189 121.424 17.5902 121.531 17.0756C121.638 16.5397 121.831 16.1216 122.11 15.8215C122.217 15.7143 122.335 15.5964 122.464 15.4678C122.592 15.3391 122.678 15.1998 122.721 15.0497C123.278 13.5062 124.125 12.4128 125.261 11.7696C126.419 11.1051 127.748 10.6977 129.249 10.5477C130.107 10.4405 130.921 10.4726 131.693 10.6441C132.486 10.8156 133.237 11.1694 133.944 11.7053C134.587 12.177 135.037 12.7558 135.295 13.4418C135.573 14.1064 135.616 14.8353 135.423 15.6285C135.337 16.0359 135.198 16.4754 135.005 16.947C134.812 17.4186 134.501 17.6759 134.073 17.7188C133.622 17.7617 133.001 17.7938 132.207 17.8153C131.414 17.8153 130.589 17.8153 129.731 17.8153C128.895 17.7938 128.134 17.7831 127.448 17.7831C126.784 17.7617 126.333 17.7402 126.098 17.7188ZM129.345 15.3391C129.345 15.3391 129.474 15.3391 129.731 15.3391C130.01 15.3177 130.321 15.307 130.664 15.307C131.028 15.307 131.339 15.307 131.596 15.307C131.854 15.307 132.111 15.2855 132.368 15.2427C132.647 15.1998 132.797 15.0283 132.818 14.7281C132.818 14.5352 132.722 14.3208 132.529 14.085C132.358 13.8492 132.186 13.6884 132.015 13.6026C130.364 12.7451 128.681 12.7665 126.966 13.6669C126.816 13.7527 126.687 13.8706 126.58 14.0207C126.473 14.1707 126.366 14.3208 126.258 14.4709C126.108 14.7281 126.065 14.9425 126.13 15.114C126.215 15.2641 126.419 15.3391 126.741 15.3391H129.345Z" fill="black"/>
</svg>
