<svg width="24" height="24" viewBox="0 0 24 24" fill="none" xmlns="http://www.w3.org/2000/svg">
<path fill-rule="evenodd" clip-rule="evenodd" d="M12 18.9135C11.3938 18.9135 10.8 18.8715 10.2236 18.7904C9.64718 19.1966 6.31282 21.5381 5.99795 21.5822C5.99795 21.5822 5.86974 21.6325 5.76 21.5679C5.65026 21.5033 5.66974 21.333 5.66974 21.333C5.70134 21.1158 6.47356 18.4475 6.66738 17.7778L6.68718 17.7094C3.8718 16.3145 2 13.8438 2 11.0294C2 6.67454 6.47692 3.14429 12 3.14429C17.5231 3.14429 22 6.67454 22 11.0294C22 15.3833 17.5231 18.9135 12 18.9135ZM7.04825 9.80274H7.94774C8.09029 9.79221 8.22357 9.72815 8.32085 9.62343C8.41812 9.5187 8.47219 9.38106 8.47219 9.23812C8.47219 9.09519 8.41812 8.95755 8.32085 8.85282C8.22357 8.7481 8.09029 8.68404 7.94774 8.67351H4.9939C4.85135 8.68404 4.71806 8.7481 4.62079 8.85282C4.52351 8.95755 4.46945 9.09519 4.46945 9.23812C4.46945 9.38106 4.52351 9.5187 4.62079 9.62343C4.71806 9.72815 4.85135 9.79221 4.9939 9.80274H5.89441V13.2304C5.89441 13.535 6.15184 13.7812 6.47082 13.7812C6.78979 13.7812 7.04825 13.534 7.04825 13.2304V9.80274ZM19.3163 13.0382C19.2971 12.9648 19.2635 12.8959 19.2175 12.8356L17.798 10.9535L19.1129 9.63966C19.1581 9.59361 19.1929 9.53834 19.2148 9.47763C19.2368 9.41693 19.2454 9.3522 19.24 9.28787C19.23 9.14961 19.1698 9.01978 19.0708 8.92274C18.9621 8.81402 18.8165 8.75146 18.6729 8.75146C18.6138 8.75092 18.5552 8.76206 18.5005 8.78424C18.4457 8.80642 18.3959 8.83919 18.3539 8.88069L16.7436 10.4909V9.24992C16.7374 9.10112 16.6738 8.9605 16.5663 8.85743C16.4588 8.75436 16.3156 8.69681 16.1667 8.69681C16.0178 8.69681 15.8746 8.75436 15.7671 8.85743C15.6596 8.9605 15.5961 9.10112 15.5898 9.24992V13.1966C15.5898 13.3497 15.6506 13.4966 15.7589 13.6049C15.8672 13.7132 16.0141 13.774 16.1672 13.774C16.3201 13.7735 16.4666 13.7124 16.5746 13.6042C16.6826 13.496 16.7434 13.3495 16.7436 13.1966V11.9381L16.9436 11.7381L18.2965 13.5299C18.3501 13.6017 18.4197 13.6598 18.4999 13.6997C18.5801 13.7396 18.6685 13.7601 18.758 13.7597C18.8832 13.7597 19.0051 13.7187 19.1047 13.6427C19.1653 13.5974 19.2164 13.5406 19.2549 13.4755C19.2935 13.4103 19.3187 13.3382 19.3293 13.2633C19.3399 13.1881 19.3355 13.1116 19.3163 13.0382ZM10.6534 9.24377C10.5559 8.96684 10.2606 8.68171 9.88415 8.67351C9.50877 8.68171 9.21338 8.96684 9.11595 9.24274L7.73646 12.8745C7.56108 13.4181 7.7139 13.6212 7.87287 13.695C7.98783 13.7474 8.11272 13.7743 8.23902 13.774C8.48005 13.774 8.66364 13.6766 8.71902 13.5197L9.00518 12.7709H10.7642L11.0503 13.5197C11.1057 13.6766 11.2893 13.774 11.5303 13.774C11.6567 13.7739 11.7815 13.7466 11.8965 13.694C12.0554 13.6212 12.2083 13.4192 12.0329 12.8735L10.6534 9.24377ZM15.1983 13.5469C15.3019 13.4476 15.3619 13.3113 15.3652 13.1679C15.3652 12.8766 15.117 12.6397 14.8124 12.6397H13.5867V9.24992C13.5867 8.93197 13.3231 8.67351 12.998 8.67351C12.6729 8.67351 12.4083 8.93197 12.4083 9.24992V13.1679C12.4099 13.239 12.4254 13.3091 12.4542 13.3742C12.4829 13.4393 12.5241 13.4981 12.5755 13.5472C12.627 13.5964 12.6876 13.6349 12.7539 13.6606C12.8202 13.6863 12.891 13.6987 12.9621 13.6971H14.8124C14.9558 13.7001 15.0946 13.6461 15.1983 13.5469ZM9.30869 11.7494L9.8851 10.1125L10.4605 11.7494H9.30869Z" fill="#3A1D1D"/>
</svg>
