<svg width="24" height="24" viewBox="0 0 24 24" fill="none" xmlns="http://www.w3.org/2000/svg">
<path d="M22.3334 6.23334C19.8001 3.26667 15.3668 3.10001 12.6668 5.80001C12.3001 6.16667 11.7001 6.16667 11.3334 5.80001C8.76675 3.23334 4.63342 3.23334 2.03342 5.76667C-0.166581 7.93334 -0.499914 11.4333 1.16675 14.0333C1.70009 14.8333 2.36675 15.4667 3.06675 15.9333L11.5001 22.7667C11.8001 23 12.2334 23 12.5334 22.7667L20.9334 15.9333C21.6334 15.4667 22.2668 14.8667 22.8001 14.0667C24.4001 11.7 24.2001 8.43334 22.3334 6.23334Z" fill="#9A9A9A"/>
<path d="M20.0667 7.80001C18.1 5.46667 14.6334 5.36667 12.5334 7.46667C12.2334 7.76667 11.7667 7.76667 11.5 7.46667C9.50002 5.46667 6.26669 5.46667 4.26669 7.46667C2.56669 9.16667 2.26669 11.9 3.60002 13.9C4.00002 14.5333 4.53335 15.0333 5.10002 15.4L11.7 20.7333C11.9334 20.9333 12.2667 20.9333 12.5 20.7333L19.0334 15.4C19.5667 15.0333 20.0667 14.5667 20.4667 13.9667C21.6667 12.0667 21.5334 9.53334 20.0667 7.80001Z" fill="#545454"/>
<path d="M16.9 10C15.7 8.6 13.6 8.53333 12.3 9.8C12.1333 9.96667 11.8333 9.96667 11.6667 9.8C10.4333 8.56667 8.46667 8.56667 7.26667 9.8C6.23333 10.8333 6.06667 12.5 6.86667 13.7333C7.13333 14.1333 7.43333 14.4 7.76667 14.6333L11.7667 17.8667C11.9 17.9667 12.1 17.9667 12.2667 17.8667L16.2667 14.6C16.6 14.3667 16.9 14.1 17.1333 13.7333C17.9 12.6 17.8 11.0667 16.9 10Z" fill="black"/>
</svg>
